<mxfile host="drawio-plugin" modified="2023-04-12T08:06:12.757Z" agent="5.0 (Windows NT 6.2; Win64; x64) AppleWebKit/537.36 (KHTML, like Gecko) Chrome/104.0.5112.102 Safari/537.36" etag="601gjP9_SrCGAOo_2Z4S" version="20.5.3" type="embed"><diagram id="pOgYGxgZvi2bDCByNrLW" name="Page-1"><mxGraphModel dx="725" dy="519" grid="0" gridSize="10" guides="1" tooltips="1" connect="1" arrows="1" fold="1" page="1" pageScale="1" pageWidth="850" pageHeight="1100" background="#ffffff" math="0" shadow="0"><root><mxCell id="0"/><mxCell id="1" parent="0"/><mxCell id="4" value="" style="edgeStyle=orthogonalEdgeStyle;rounded=0;orthogonalLoop=1;jettySize=auto;html=1;" parent="1" source="2" target="3" edge="1"><mxGeometry relative="1" as="geometry"/></mxCell><mxCell id="39" value="" style="edgeStyle=orthogonalEdgeStyle;rounded=0;orthogonalLoop=1;jettySize=auto;html=1;strokeColor=#000000;exitX=0.5;exitY=1;exitDx=0;exitDy=0;entryX=0.5;entryY=0;entryDx=0;entryDy=0;" parent="1" source="38" target="2" edge="1"><mxGeometry relative="1" as="geometry"/></mxCell><mxCell id="2" value="Access Web" style="rounded=0;whiteSpace=wrap;html=1;fillColor=#f5f5f5;fontColor=#333333;strokeColor=#666666;" parent="1" vertex="1"><mxGeometry x="280" y="80" width="120" height="40" as="geometry"/></mxCell><mxCell id="6" value="" style="edgeStyle=orthogonalEdgeStyle;rounded=0;orthogonalLoop=1;jettySize=auto;html=1;" parent="1" source="3" target="5" edge="1"><mxGeometry relative="1" as="geometry"/></mxCell><mxCell id="3" value="Login" style="rounded=0;whiteSpace=wrap;html=1;fillColor=#f5f5f5;fontColor=#333333;strokeColor=#666666;" parent="1" vertex="1"><mxGeometry x="280" y="160" width="120" height="40" as="geometry"/></mxCell><mxCell id="8" value="" style="edgeStyle=orthogonalEdgeStyle;rounded=0;orthogonalLoop=1;jettySize=auto;html=1;" parent="1" source="5" target="7" edge="1"><mxGeometry relative="1" as="geometry"/></mxCell><mxCell id="5" value="" style="rhombus;whiteSpace=wrap;html=1;fillColor=#f5f5f5;strokeColor=#666666;fontColor=#333333;rounded=0;" parent="1" vertex="1"><mxGeometry x="300" y="240" width="80" height="80" as="geometry"/></mxCell><mxCell id="10" value="" style="edgeStyle=orthogonalEdgeStyle;rounded=0;orthogonalLoop=1;jettySize=auto;html=1;" parent="1" source="7" target="9" edge="1"><mxGeometry relative="1" as="geometry"/></mxCell><mxCell id="7" value="Choosen&amp;nbsp;&amp;nbsp;" style="whiteSpace=wrap;html=1;fillColor=#f5f5f5;strokeColor=#666666;fontColor=#333333;rounded=0;" parent="1" vertex="1"><mxGeometry x="280" y="360" width="120" height="40" as="geometry"/></mxCell><mxCell id="12" value="" style="edgeStyle=orthogonalEdgeStyle;rounded=0;orthogonalLoop=1;jettySize=auto;html=1;" parent="1" source="9" target="11" edge="1"><mxGeometry relative="1" as="geometry"/></mxCell><mxCell id="14" value="" style="edgeStyle=orthogonalEdgeStyle;rounded=0;orthogonalLoop=1;jettySize=auto;html=1;" parent="1" source="9" target="13" edge="1"><mxGeometry relative="1" as="geometry"/></mxCell><mxCell id="9" value="Update" style="whiteSpace=wrap;html=1;fillColor=#f5f5f5;strokeColor=#666666;fontColor=#333333;rounded=0;" parent="1" vertex="1"><mxGeometry x="280" y="480" width="120" height="40" as="geometry"/></mxCell><mxCell id="11" value="Delete" style="whiteSpace=wrap;html=1;fillColor=#f5f5f5;strokeColor=#666666;fontColor=#333333;rounded=0;" parent="1" vertex="1"><mxGeometry x="80" y="560" width="120" height="40" as="geometry"/></mxCell><mxCell id="19" value="" style="edgeStyle=orthogonalEdgeStyle;rounded=0;orthogonalLoop=1;jettySize=auto;html=1;" parent="1" source="13" target="18" edge="1"><mxGeometry relative="1" as="geometry"/></mxCell><mxCell id="13" value="Add" style="whiteSpace=wrap;html=1;fillColor=#f5f5f5;strokeColor=#666666;fontColor=#333333;rounded=0;" parent="1" vertex="1"><mxGeometry x="480" y="480" width="120" height="40" as="geometry"/></mxCell><mxCell id="17" value="" style="edgeStyle=orthogonalEdgeStyle;rounded=0;orthogonalLoop=1;jettySize=auto;html=1;" parent="1" source="15" target="16" edge="1"><mxGeometry relative="1" as="geometry"/></mxCell><mxCell id="15" value="Edit" style="whiteSpace=wrap;html=1;fillColor=#f5f5f5;strokeColor=#666666;fontColor=#333333;rounded=0;" parent="1" vertex="1"><mxGeometry x="280" y="560" width="120" height="40" as="geometry"/></mxCell><mxCell id="41" value="" style="edgeStyle=orthogonalEdgeStyle;rounded=0;orthogonalLoop=1;jettySize=auto;html=1;strokeColor=#000000;" parent="1" source="16" target="40" edge="1"><mxGeometry relative="1" as="geometry"/></mxCell><mxCell id="16" value="Save" style="whiteSpace=wrap;html=1;fillColor=#f5f5f5;strokeColor=#666666;fontColor=#333333;rounded=0;" parent="1" vertex="1"><mxGeometry x="280" y="640" width="120" height="40" as="geometry"/></mxCell><mxCell id="21" value="" style="edgeStyle=orthogonalEdgeStyle;rounded=0;orthogonalLoop=1;jettySize=auto;html=1;" parent="1" source="18" target="20" edge="1"><mxGeometry relative="1" as="geometry"/></mxCell><mxCell id="18" value="Input Data" style="whiteSpace=wrap;html=1;fillColor=#f5f5f5;strokeColor=#666666;fontColor=#333333;rounded=0;" parent="1" vertex="1"><mxGeometry x="480" y="560" width="120" height="40" as="geometry"/></mxCell><mxCell id="20" value="Save" style="whiteSpace=wrap;html=1;fillColor=#f5f5f5;strokeColor=#666666;fontColor=#333333;rounded=0;" parent="1" vertex="1"><mxGeometry x="480" y="640" width="120" height="40" as="geometry"/></mxCell><mxCell id="22" value="" style="endArrow=classic;html=1;rounded=0;strokeColor=#000000;" parent="1" target="3" edge="1"><mxGeometry width="50" height="50" relative="1" as="geometry"><mxPoint x="340" y="120" as="sourcePoint"/><mxPoint x="400" y="200" as="targetPoint"/></mxGeometry></mxCell><mxCell id="23" value="" style="endArrow=classic;html=1;rounded=0;strokeColor=#000000;" parent="1" target="5" edge="1"><mxGeometry width="50" height="50" relative="1" as="geometry"><mxPoint x="340" y="200" as="sourcePoint"/><mxPoint x="400" y="200" as="targetPoint"/></mxGeometry></mxCell><mxCell id="24" value="" style="endArrow=classic;html=1;rounded=0;strokeColor=#000000;exitX=0.5;exitY=1;exitDx=0;exitDy=0;" parent="1" source="5" edge="1"><mxGeometry width="50" height="50" relative="1" as="geometry"><mxPoint x="350" y="320" as="sourcePoint"/><mxPoint x="340" y="360" as="targetPoint"/></mxGeometry></mxCell><mxCell id="25" value="" style="endArrow=classic;html=1;rounded=0;strokeColor=#000000;exitX=0.5;exitY=1;exitDx=0;exitDy=0;entryX=0.5;entryY=0;entryDx=0;entryDy=0;" parent="1" source="7" target="9" edge="1"><mxGeometry width="50" height="50" relative="1" as="geometry"><mxPoint x="350" y="400" as="sourcePoint"/><mxPoint x="400" y="350" as="targetPoint"/></mxGeometry></mxCell><mxCell id="26" value="" style="endArrow=classic;html=1;rounded=0;strokeColor=#000000;exitX=0.5;exitY=1;exitDx=0;exitDy=0;entryX=0.5;entryY=0;entryDx=0;entryDy=0;" parent="1" source="9" target="15" edge="1"><mxGeometry width="50" height="50" relative="1" as="geometry"><mxPoint x="350" y="450" as="sourcePoint"/><mxPoint x="400" y="400" as="targetPoint"/></mxGeometry></mxCell><mxCell id="27" value="" style="endArrow=classic;html=1;rounded=0;strokeColor=#000000;" parent="1" target="16" edge="1"><mxGeometry width="50" height="50" relative="1" as="geometry"><mxPoint x="340" y="600" as="sourcePoint"/><mxPoint x="400" y="450" as="targetPoint"/></mxGeometry></mxCell><mxCell id="28" value="" style="endArrow=classic;html=1;rounded=0;strokeColor=#000000;exitX=0.5;exitY=1;exitDx=0;exitDy=0;entryX=0.5;entryY=0;entryDx=0;entryDy=0;" parent="1" source="13" target="18" edge="1"><mxGeometry width="50" height="50" relative="1" as="geometry"><mxPoint x="350" y="500" as="sourcePoint"/><mxPoint x="400" y="450" as="targetPoint"/></mxGeometry></mxCell><mxCell id="29" value="" style="endArrow=classic;html=1;rounded=0;strokeColor=#000000;exitX=0.5;exitY=1;exitDx=0;exitDy=0;" parent="1" source="18" target="20" edge="1"><mxGeometry width="50" height="50" relative="1" as="geometry"><mxPoint x="350" y="500" as="sourcePoint"/><mxPoint x="400" y="450" as="targetPoint"/></mxGeometry></mxCell><mxCell id="31" value="" style="endArrow=classic;html=1;rounded=0;strokeColor=#000000;entryX=0.5;entryY=0;entryDx=0;entryDy=0;" parent="1" target="13" edge="1"><mxGeometry width="50" height="50" relative="1" as="geometry"><mxPoint x="340" y="440" as="sourcePoint"/><mxPoint x="400" y="450" as="targetPoint"/><Array as="points"><mxPoint x="540" y="440"/></Array></mxGeometry></mxCell><mxCell id="32" value="" style="endArrow=classic;html=1;rounded=0;strokeColor=#000000;entryX=0.5;entryY=0;entryDx=0;entryDy=0;" parent="1" target="11" edge="1"><mxGeometry width="50" height="50" relative="1" as="geometry"><mxPoint x="340" y="440" as="sourcePoint"/><mxPoint x="400" y="450" as="targetPoint"/><Array as="points"><mxPoint x="140" y="440"/></Array></mxGeometry></mxCell><mxCell id="33" value="" style="endArrow=classic;html=1;rounded=0;strokeColor=#000000;exitX=0;exitY=0.5;exitDx=0;exitDy=0;entryX=0;entryY=0.5;entryDx=0;entryDy=0;" parent="1" source="5" target="3" edge="1"><mxGeometry width="50" height="50" relative="1" as="geometry"><mxPoint x="350" y="300" as="sourcePoint"/><mxPoint x="400" y="250" as="targetPoint"/><Array as="points"><mxPoint x="240" y="280"/><mxPoint x="240" y="180"/></Array></mxGeometry></mxCell><mxCell id="34" value="" style="endArrow=classic;html=1;rounded=0;strokeColor=#000000;exitX=0.5;exitY=1;exitDx=0;exitDy=0;" parent="1" source="16" edge="1"><mxGeometry width="50" height="50" relative="1" as="geometry"><mxPoint x="350" y="650" as="sourcePoint"/><mxPoint x="340" y="760" as="targetPoint"/></mxGeometry></mxCell><mxCell id="36" value="" style="endArrow=none;html=1;rounded=0;strokeColor=#000000;exitX=0.5;exitY=1;exitDx=0;exitDy=0;" parent="1" source="11" edge="1"><mxGeometry width="50" height="50" relative="1" as="geometry"><mxPoint x="350" y="650" as="sourcePoint"/><mxPoint x="340" y="720" as="targetPoint"/><Array as="points"><mxPoint x="140" y="720"/></Array></mxGeometry></mxCell><mxCell id="37" value="" style="endArrow=none;html=1;rounded=0;strokeColor=#000000;entryX=0.5;entryY=1;entryDx=0;entryDy=0;" parent="1" target="20" edge="1"><mxGeometry width="50" height="50" relative="1" as="geometry"><mxPoint x="340" y="720" as="sourcePoint"/><mxPoint x="400" y="600" as="targetPoint"/><Array as="points"><mxPoint x="540" y="720"/></Array></mxGeometry></mxCell><mxCell id="38" value="Begin" style="rounded=0;whiteSpace=wrap;html=1;fillColor=#f5f5f5;fontColor=#333333;strokeColor=#666666;" parent="1" vertex="1"><mxGeometry x="280" width="120" height="40" as="geometry"/></mxCell><mxCell id="40" value="End" style="whiteSpace=wrap;html=1;fillColor=#f5f5f5;strokeColor=#666666;fontColor=#333333;rounded=0;" parent="1" vertex="1"><mxGeometry x="280" y="760" width="120" height="40" as="geometry"/></mxCell><mxCell id="42" value="&lt;font color=&quot;#000000&quot; style=&quot;font-size: 14px;&quot;&gt;Mô hình hoạt động cập nhât đối tượng&lt;/font&gt;" style="text;html=1;align=center;verticalAlign=middle;resizable=0;points=[];autosize=1;strokeColor=none;fillColor=none;" parent="1" vertex="1"><mxGeometry x="190" y="820" width="260" height="30" as="geometry"/></mxCell><mxCell id="43" value="" style="endArrow=none;html=1;rounded=0;strokeColor=#000000;fontSize=14;fontColor=#000000;dashed=1;" parent="1" edge="1"><mxGeometry width="50" height="50" relative="1" as="geometry"><mxPoint y="420" as="sourcePoint"/><mxPoint x="740" y="420" as="targetPoint"/></mxGeometry></mxCell></root></mxGraphModel></diagram></mxfile>